solid OpenSCAD_Model
  facet normal 0 1 0
    outer loop
      vertex 304 4 298
      vertex 307 4 305
      vertex 307 4 301
    endloop
  endfacet
  facet normal -1 0 0
    outer loop
      vertex 304 0 298
      vertex 304 4 390
      vertex 304 4 298
    endloop
  endfacet
  facet normal 0 -1 0
    outer loop
      vertex 304 0 298
      vertex 307 0 301
      vertex 304 0 390
    endloop
  endfacet
  facet normal 0 1 0
    outer loop
      vertex 304 4 298
      vertex 307 4 387
      vertex 307 4 305
    endloop
  endfacet
  facet normal 1 0 0
    outer loop
      vertex 307 0 301
      vertex 307 4 301
      vertex 307 0 387
    endloop
  endfacet
  facet normal 1 0 0
    outer loop
      vertex 307 0 387
      vertex 307 4 301
      vertex 307 4 305
    endloop
  endfacet
  facet normal -1 0 0
    outer loop
      vertex 307 144 305
      vertex 307 4 301
      vertex 307 4 305
    endloop
  endfacet
  facet normal 0 -1 0
    outer loop
      vertex 304 0 298
      vertex 460 0 298
      vertex 307 0 301
    endloop
  endfacet
  facet normal 0 0 -1
    outer loop
      vertex 304 0 298
      vertex 304 4 298
      vertex 460 4 298
    endloop
  endfacet
  facet normal 0 1 0
    outer loop
      vertex 304 4 298
      vertex 307 4 301
      vertex 457 4 301
    endloop
  endfacet
  facet normal 0 0 1
    outer loop
      vertex 307 0 301
      vertex 457 4 301
      vertex 307 4 301
    endloop
  endfacet
  facet normal 0 -1 0
    outer loop
      vertex 307 4 301
      vertex 457 4 305
      vertex 307 4 305
    endloop
  endfacet
  facet normal 0 0 1
    outer loop
      vertex 307 144 305
      vertex 307 4 305
      vertex 457 4 305
    endloop
  endfacet
  facet normal 0 1 0
    outer loop
      vertex 304 4 298
      vertex 304 4 390
      vertex 307 4 387
    endloop
  endfacet
  facet normal -1 0 0
    outer loop
      vertex 304 0 298
      vertex 304 0 390
      vertex 304 4 390
    endloop
  endfacet
  facet normal 0 -1 0
    outer loop
      vertex 307 0 301
      vertex 307 0 387
      vertex 304 0 390
    endloop
  endfacet
  facet normal 1 0 0
    outer loop
      vertex 307 0 387
      vertex 307 4 305
      vertex 307 4 387
    endloop
  endfacet
  facet normal 0 0 -1
    outer loop
      vertex 307 0 387
      vertex 307 4 387
      vertex 457 0 387
    endloop
  endfacet
  facet normal 0 -1 0
    outer loop
      vertex 307 0 387
      vertex 457 0 387
      vertex 304 0 390
    endloop
  endfacet
  facet normal 0 0 1
    outer loop
      vertex 304 0 390
      vertex 460 0 390
      vertex 304 4 390
    endloop
  endfacet
  facet normal 0 1 0
    outer loop
      vertex 307 4 387
      vertex 304 4 390
      vertex 460 4 390
    endloop
  endfacet
  facet normal -1 0 0
    outer loop
      vertex 307 144 301
      vertex 307 4 301
      vertex 307 144 305
    endloop
  endfacet
  facet normal 0 0 -1
    outer loop
      vertex 307 144 301
      vertex 457 144 301
      vertex 307 4 301
    endloop
  endfacet
  facet normal 0 1 0
    outer loop
      vertex 307 144 301
      vertex 307 144 305
      vertex 457 144 301
    endloop
  endfacet
  facet normal 0 0 -1
    outer loop
      vertex 304 0 298
      vertex 460 4 298
      vertex 460 0 298
    endloop
  endfacet
  facet normal 0 -1 0
    outer loop
      vertex 307 0 301
      vertex 460 0 298
      vertex 457 0 301
    endloop
  endfacet
  facet normal 0 1 0
    outer loop
      vertex 304 4 298
      vertex 457 4 301
      vertex 460 4 298
    endloop
  endfacet
  facet normal 0 0 1
    outer loop
      vertex 307 0 301
      vertex 457 0 301
      vertex 457 4 301
    endloop
  endfacet
  facet normal 0 -1 0
    outer loop
      vertex 457 4 301
      vertex 457 4 305
      vertex 307 4 301
    endloop
  endfacet
  facet normal 0 0 -1
    outer loop
      vertex 457 144 301
      vertex 457 4 301
      vertex 307 4 301
    endloop
  endfacet
  facet normal -1 0 0
    outer loop
      vertex 457 0 301
      vertex 457 4 305
      vertex 457 4 301
    endloop
  endfacet
  facet normal 0 -1 0
    outer loop
      vertex 460 0 298
      vertex 457 0 387
      vertex 457 0 301
    endloop
  endfacet
  facet normal 1 0 0
    outer loop
      vertex 460 0 298
      vertex 460 4 298
      vertex 460 0 390
    endloop
  endfacet
  facet normal -1 0 0
    outer loop
      vertex 457 0 301
      vertex 457 4 387
      vertex 457 4 305
    endloop
  endfacet
  facet normal 0 1 0
    outer loop
      vertex 460 4 298
      vertex 457 4 301
      vertex 460 4 390
    endloop
  endfacet
  facet normal 0 1 0
    outer loop
      vertex 460 4 390
      vertex 457 4 301
      vertex 457 4 305
    endloop
  endfacet
  facet normal 1 0 0
    outer loop
      vertex 457 144 301
      vertex 457 4 305
      vertex 457 4 301
    endloop
  endfacet
  facet normal 0 0 -1
    outer loop
      vertex 307 4 387
      vertex 457 4 387
      vertex 457 0 387
    endloop
  endfacet
  facet normal 0 -1 0
    outer loop
      vertex 304 0 390
      vertex 457 0 387
      vertex 460 0 390
    endloop
  endfacet
  facet normal 0 1 0
    outer loop
      vertex 307 4 387
      vertex 460 4 390
      vertex 457 4 387
    endloop
  endfacet
  facet normal 0 0 1
    outer loop
      vertex 304 4 390
      vertex 460 0 390
      vertex 460 4 390
    endloop
  endfacet
  facet normal -1 0 0
    outer loop
      vertex 457 0 301
      vertex 457 0 387
      vertex 457 4 387
    endloop
  endfacet
  facet normal 0 -1 0
    outer loop
      vertex 460 0 298
      vertex 460 0 390
      vertex 457 0 387
    endloop
  endfacet
  facet normal 1 0 0
    outer loop
      vertex 460 0 390
      vertex 460 4 298
      vertex 460 4 390
    endloop
  endfacet
  facet normal 0 1 0
    outer loop
      vertex 457 4 387
      vertex 460 4 390
      vertex 457 4 305
    endloop
  endfacet
  facet normal 0 0 1
    outer loop
      vertex 307 144 305
      vertex 457 4 305
      vertex 457 144 305
    endloop
  endfacet
  facet normal 0 1 0
    outer loop
      vertex 307 144 305
      vertex 457 144 305
      vertex 457 144 301
    endloop
  endfacet
  facet normal 1 0 0
    outer loop
      vertex 457 144 301
      vertex 457 144 305
      vertex 457 4 305
    endloop
  endfacet
endsolid OpenSCAD_Model
